# xmcd
#
# Track frame offsets:
# 150
# 20493
# 38577
# 68155
# 82789
# 101582
# 120318
# 139564
#
# Disc length: 2175 seconds
#
# Revision: 0
# Processed by: cddbd v1.5.2PL0 Copyright (c) Steve Scherf et al.
# Submitted via: Audion 3.0.2 (http://www.panic.com/audion/)
#
DISCID=55087d08
DTITLE=Grateful Dead - From the Mars Hotel 
DYEAR=1900
DGENRE=
TTITLE0=U.S. Blues
TTITLE1=China Doll
TTITLE2=Unbroken Chain
TTITLE3=Loose Lucy
TTITLE4=Scarlet Begonias
TTITLE5=Pride Of Cucamonga
TTITLE6=Money Money
TTITLE7=Ship Of Fools
EXTD=
EXTT0=
EXTT1=
EXTT2=
EXTT3=
EXTT4=
EXTT5=
EXTT6=
EXTT7=
PLAYORDER=
